#!OML:ASF H:\LiuWeirdWalks\Patient Classification 1\Patient 1\Session 1\male.ASF
:FULLY-SPECIFIED
:DEGREES
148
root 1.30419 16.5017 4.16403 -6.92109 0.213917 -1.00811
lowerback 8.77546 0.159073 -0.82296
upperback 2.33066 0.205978 2.23766
thorax -2.51508 0.106083 2.75699
lowerneck -23.2481 1.61806 4.41652
upperneck 20.2478 2.35965 -6.52552
head 10.4646 0.613423 -2.70879
rclavicle 1.70209e-015 2.38542e-015
rhumerus 25.9907 -2.94119 -40.3654
rradius 70.2742
rwrist 1.75586
rhand 12.7308 -1.99825
rfingers 7.12502
rthumb 37.7116 -27.8754
lclavicle 1.70209e-015 2.38542e-015
lhumerus 19.6165 8.93978 53.8772
lradius 70.6801
lwrist -13.6565
lhand 13.4875 -2.16135
lfingers 7.12502
lthumb 38.4261 23.5207
rfemur -13.8051 -9.30059 15.247
rtibia 59.4412
rfoot -27.2701 -16.7318
rtoes -12.3154
lfemur -13.1404 10.9894 -12.1369
ltibia 56.2304
lfoot -25.0496 13.9161
ltoes -13.3949
149
root 1.30437 16.5027 4.16247 -6.92138 0.219844 -1.01087
lowerback 8.77866 0.157793 -0.823183
upperback 2.33531 0.204218 2.23824
thorax -2.51194 0.105139 2.7579
lowerneck -23.2636 1.61819 4.42242
upperneck 20.2567 2.35626 -6.52023
head 10.4704 0.612702 -2.70863
rclavicle -2.78299e-015 5.96354e-015
rhumerus 25.9872 -2.95838 -40.3694
rradius 70.2684
rwrist 1.76619
rhand 12.6596 -1.97384
rfingers 7.12502
rthumb 37.6443 -27.869
lclavicle -2.78299e-015 5.96354e-015
lhumerus 19.6311 8.93121 53.876
lradius 70.6813
lwrist -13.6872
lhand 13.4408 -2.21665
lfingers 7.12502
lthumb 38.3821 23.4776
rfemur -13.8055 -9.29682 15.2522
rtibia 59.4297
rfoot -27.2591 -16.7354
rtoes -12.3147
lfemur -13.1433 10.9814 -12.1379
ltibia 56.2171
lfoot -25.0338 13.9165
ltoes -13.4088
150
root 1.30459 16.5038 4.16081 -6.91817 0.223639 -1.01426
lowerback 8.77983 0.157532 -0.82364
upperback 2.33686 0.203867 2.24003
thorax -2.51098 0.104945 2.76006
lowerneck -23.2757 1.62079 4.43001
upperneck 20.2628 2.35592 -6.51566
head 10.4749 0.613493 -2.70847
rclavicle 3.37934e-015 -4.37326e-015
rhumerus 25.9787 -2.97051 -40.3692
rradius 70.2637
rwrist 1.78785
rhand 12.5862 -1.94623
rfingers 7.12502
rthumb 37.5749 -27.8599
lclavicle 3.37934e-015 -4.37326e-015
lhumerus 19.6442 8.92261 53.8796
lradius 70.6811
lwrist -13.7229
lhand 13.393 -2.2815
lfingers 7.12502
lthumb 38.3369 23.4253
rfemur -13.8107 -9.2935 15.2589
rtibia 59.4174
rfoot -27.2458 -16.7393
rtoes -12.3125
lfemur -13.1507 10.98 -12.1377
ltibia 56.2046
lfoot -25.0184 13.9147
ltoes -13.4154
151
root 1.30491 16.505 4.15921 -6.91208 0.225804 -1.01573
lowerback 8.77749 0.158295 -0.825789
upperback 2.33643 0.204746 2.24178
thorax -2.51018 0.105389 2.76299
lowerneck -23.2932 1.62626 4.4439
upperneck 20.2731 2.35879 -6.5167
head 10.4821 0.615452 -2.711
rclavicle 1.15544e-015 1.59028e-015
rhumerus 25.9667 -2.98004 -40.3675
rradius 70.261
rwrist 1.81463
rhand 12.5199 -1.92048
rfingers 7.12502
rthumb 37.5123 -27.8508
lclavicle 1.15544e-015 1.59028e-015
lhumerus 19.6571 8.91461 53.8894
lradius 70.6781
lwrist -13.7637
lhand 13.3465 -2.3571
lfingers 7.12502
lthumb 38.293 23.3618
rfemur -13.8185 -9.29196 15.2628
rtibia 59.4037
rfoot -27.233 -16.7406
rtoes -12.3076
lfemur -13.1604 10.9809 -12.1406
ltibia 56.1925
lfoot -25.004 13.9125
ltoes -13.4163
152
root 1.30532 16.5063 4.15764 -6.90477 0.226401 -1.01797
lowerback 8.77293 0.159132 -0.826621
upperback 2.33429 0.205884 2.24444
thorax -2.50994 0.105977 2.76609
lowerneck -23.313 1.63359 4.45911
upperneck 20.2865 2.36435 -6.51963
head 10.4912 0.618457 -2.71409
rclavicle -4.2366e-015 -1.59028e-015
rhumerus 25.9554 -2.98649 -40.3665
rradius 70.2572
rwrist 1.84385
rhand 12.4664 -1.90036
rfingers 7.12502
rthumb 37.4617 -27.844
lclavicle -4.2366e-015 -1.59028e-015
lhumerus 19.6682 8.9083 53.9036
lradius 70.6747
lwrist -13.8003
lhand 13.3142 -2.42463
lfingers 7.12502
lthumb 38.2626 23.3027
rfemur -13.8266 -9.29219 15.2669
rtibia 59.3882
rfoot -27.2206 -16.7398
rtoes -12.2966
lfemur -13.1705 10.9837 -12.1429
ltibia 56.1809
lfoot -24.992 13.909
ltoes -13.4102
